<svg xmlns="http://www.w3.org/2000/svg" viewBox="0 0 508.8 131.3"><g fill="#FFF" stroke="#FFF" stroke-miterlimit="10"><path d="M.6 105.6l4.9-7.7c3.5 3.6 10.4 6.9 16.7 6.9 6.5 0 9.9-2.7 9.9-6.6 0-9.8-30-2.8-30-21.9 0-8.1 7-15 19.5-15 8.4 0 14.8 3 19.2 6.9l-4.5 7.6c-3-3.3-8.4-6-14.7-6-5.6 0-9.1 2.7-9.1 6.2 0 8.7 30 2.2 30 21.9 0 8.8-7.3 15.5-20.6 15.5-8.5 0-16.1-2.8-21.3-7.8zM87.1 112.1v-6.6c-3.5 3.9-9.7 7.8-17.5 7.8-10.7 0-16-5.6-16-15.7V62.5h10.8v31.1c0 7.7 3.9 10.2 10.1 10.2 5.4 0 10.2-3.2 12.6-6.5V62.5h10.8v49.6H87.1zM112.1 112.1V62.5h10.8v7.2c3.8-4.7 9.8-8.4 16.1-8.4V72c-.9-.2-2-.3-3.3-.3-4.6 0-10.7 3.1-12.8 6.7v33.8h-10.8zM201.2 105.6l4.9-7.7c3.5 3.6 10.4 6.9 16.8 6.9 6.5 0 9.9-2.7 9.9-6.6 0-9.8-30-2.8-30-21.9 0-8.1 7-15 19.5-15 8.4 0 14.8 3 19.2 6.9l-4.5 7.6c-3-3.3-8.4-6-14.7-6-5.6 0-9.1 2.7-9.1 6.2 0 8.7 30 2.2 30 21.9 0 8.8-7.3 15.5-20.6 15.5-8.7 0-16.3-2.8-21.4-7.8zM251.2 87.3c0-15 10.6-26 25.6-26 9.8 0 15.5 4.1 19 8.8l-7.1 6.5c-2.8-3.9-6.6-5.8-11.4-5.8-8.9 0-15 6.8-15 16.4 0 9.7 6.1 16.5 15 16.5 4.8 0 8.6-2.1 11.4-6l7.1 6.7c-3.5 4.6-9.2 8.8-19 8.8-15.1.2-25.6-10.9-25.6-25.9zM305.5 112.1V62.5h10.8v7.2c3.8-4.7 9.8-8.4 16.1-8.4V72c-.9-.2-1.9-.3-3.3-.3-4.6 0-10.7 3.1-12.8 6.7v33.8h-10.8zM341.4 112.1V62.5h10.8v49.6h-10.8zM377.2 105.3v25.5h-10.8V62.5h10.8v6.8c3.7-4.9 9.4-8 15.9-8 12.8 0 22 9.7 22 26s-9.1 26.1-22 26.1c-6.2 0-11.8-2.9-15.9-8.1zm26.8-18c0-9.7-5.5-16.4-14.1-16.4-5 0-10.3 2.9-12.7 6.6V97c2.4 3.7 7.7 6.8 12.7 6.8 8.6 0 14.1-6.9 14.1-16.5zM454.9 105.6l4.9-7.7c3.5 3.6 10.4 6.9 16.8 6.9 6.5 0 9.9-2.7 9.9-6.6 0-9.8-30-2.8-30-21.9 0-8.1 7-15 19.5-15 8.4 0 14.8 3 19.2 6.9l-4.5 7.6c-3-3.3-8.4-6-14.7-6-5.7 0-9.1 2.7-9.1 6.2 0 8.7 30 2.2 30 21.9 0 8.8-7.3 15.5-20.6 15.5-8.6 0-16.2-2.8-21.4-7.8zM353 50.1c0 3.4-2.8 6.2-6.2 6.2-3.4 0-6.2-2.8-6.2-6.2 0-3.4 2.8-6.2 6.2-6.2 3.4 0 6.2 2.8 6.2 6.2zM428.4 100.5V71.9h-8.2v-9.4h8.2V50.1h10.8v12.4h10.1v9.4h-10.1v26c0 3.4 1.6 6 4.7 6 2 0 3.3-.3 4.6-.9v9c-1.8.9-4.3 1.4-7.3 1.4-8.5 0-12.8-4.5-12.8-12.9"/></g><g fill="#FFF" stroke="#FFF" stroke-miterlimit="10"><path d="M88.4 9.1c-33.1 0-61.9 16.7-76.6 41.3l-1.7-.7C24.1 20.5 53.9.4 88.4.4s64.3 20.1 78.3 49.3l-1.7.7C150.3 25.8 121.5 9.1 88.4 9.1zM186 99.1c-3.6 3.5-9.2 5.4-14 5.4-9.3 0-14.9-6.3-15.7-13.7h38.2v-2.7c0-15.6-9.5-26.9-24.3-26.9-14.7 0-25.2 11.6-25.2 26 0 15.7 11 26.1 26 26.1 7.5 0 14.5-2.4 19.5-6.8-1.6-2.3-3.1-4.8-4.5-7.4zm-16-29c9.8 0 13.8 7.2 14.1 13h-27.9c.4-5.9 4.7-13 13.8-13z"/></g><path fill="#FFF" stroke="#FFF" stroke-miterlimit="10" d="M503.7 61.8c2.6 0 4.6 2.1 4.6 4.6 0 2.6-2.1 4.6-4.6 4.6-2.6 0-4.6-2.1-4.6-4.6 0-2.5 2-4.6 4.6-4.6zm0 8.3c1.9 0 3.5-1.6 3.5-3.6s-1.5-3.6-3.5-3.6c-1.9 0-3.4 1.6-3.4 3.6s1.5 3.6 3.4 3.6zm-1.8-6.1h1.6c1.1 0 2.2.3 2.2 1.4 0 .9-.6 1.4-1.1 1.5l1.2 1.9h-1.3l-1.1-1.9h-.3v1.9h-1.2V64zm1.2 2h.6c.3 0 .8 0 .8-.5s-.5-.5-.8-.5h-.6v1z"/></svg>